<svg width="100" height="63" viewBox="0 0 100 63" fill="none" xmlns="http://www.w3.org/2000/svg">
    <g id="Page 1">
        <g id="Group">
            <path id="Fill 3" fill-rule="evenodd" clip-rule="evenodd"
                d="M7.58695 19.5672C8.04965 19.4654 8.43338 19.4418 8.74794 19.2897C8.96526 19.1848 9.19236 18.9179 9.23217 18.6944C9.34442 18.0612 9.45928 17.4293 9.45471 16.7738C9.43057 13.2615 9.44362 9.74863 9.44297 6.23514C9.44297 5.99801 9.48278 5.74908 9.426 5.52313C9.30396 5.03645 9.31962 4.4399 8.69051 4.24002C8.35768 4.13387 7.98177 4.1469 7.58695 4.10159V19.5672ZM0.992984 0.00892803C1.23771 0.00892803 1.41848 0.00830727 1.59926 0.00892803C4.19664 0.0120318 6.79533 -0.027076 9.39141 0.0374829C10.7005 0.0697624 12.0319 0.203846 13.2425 0.748251C14.4674 1.29824 15.2766 2.23621 15.629 3.47773C15.7798 4.00723 15.8274 4.57709 15.8294 5.12832C15.8438 9.8914 15.8477 14.6539 15.8287 19.4169C15.8255 20.2953 15.631 21.142 15.1083 21.9111C14.6456 22.5927 13.9655 23.0149 13.2157 23.2197C12.3712 23.45 11.4928 23.6257 10.5863 23.6189C7.70703 23.5971 4.82706 23.6114 1.9484 23.6114C1.79178 23.6114 1.6358 23.6114 1.47918 23.612C1.18028 23.612 1.01778 23.4661 0.995594 23.1868C0.9845 23.0391 0.993636 22.8901 0.993636 22.7405C0.992984 15.3584 0.992984 7.97574 0.992984 0.593682V0.00892803Z"
                fill="#486D9E" />
            <path id="Fill 5" fill-rule="evenodd" clip-rule="evenodd"
                d="M57.8857 19.4525C59.1041 19.6712 59.6623 19.0058 59.7414 17.9864C59.7643 17.6895 59.7571 17.3907 59.7571 17.0925C59.7584 13.3665 59.7584 9.64117 59.7571 5.9158C59.7571 5.67726 59.7708 5.43685 59.7407 5.20141C59.6453 4.45596 59.2387 4.1963 58.6197 4.13418C58.3838 4.11057 58.1426 4.13045 57.8857 4.13045V19.4525ZM51.4851 23.5897V0.000677197C51.7375 0.000677197 51.9787 5.59916e-05 52.2198 0.000677197C54.5396 0.00378323 56.8588 -0.0098833 59.1779 0.018071C60.0741 0.0292527 60.9872 0.0460252 61.8579 0.218099C62.9652 0.437385 64.0515 0.774078 64.8941 1.58599C65.6445 2.30908 65.9929 3.1974 66.1419 4.16586C66.3354 5.42567 66.3393 6.6979 66.336 7.9695C66.3269 11.4843 66.3504 14.9991 66.306 18.5139C66.2949 19.3829 66.1537 20.2681 65.9275 21.1117C65.6785 22.0373 64.9712 22.7051 64.0529 23.0642C63.177 23.4065 62.2442 23.6183 61.2775 23.6183C58.1439 23.6177 55.0096 23.6195 51.8747 23.6189C51.7558 23.6189 51.6361 23.6021 51.4851 23.5897Z"
                fill="#486D9E" />
            <path id="Fill 9" fill-rule="evenodd" clip-rule="evenodd"
                d="M48.5149 23.6122H43.1105C42.1152 20.3054 41.1123 16.9744 40.105 13.6296C40.0708 13.6663 40.0493 13.6837 40.0348 13.7054C40.0203 13.729 40.0019 13.757 40.0019 13.7831C40.0001 17.0309 40.0001 20.2787 40.0001 23.4898C39.9425 23.547 39.9236 23.5725 39.8989 23.588C39.8756 23.6029 39.8459 23.6178 39.8187 23.6178C38.1535 23.619 36.4877 23.619 34.8257 23.619C34.6538 22.7922 34.5868 4.7864 34.736 0.0687668C35.5941 -0.0542371 36.4656 0.0283868 37.332 0.0134772C38.1801 -0.000811144 39.0294 0.010371 39.9703 0.010371C41.0447 3.2706 42.124 6.54511 43.2008 9.81341C43.2602 9.70097 43.3993 9.5643 43.3854 9.4444C43.1566 7.52231 43.3373 5.594 43.2912 3.66943C43.2628 2.48163 43.2862 1.29259 43.2862 0.0172046C45.0385 0.00229502 46.753 0.0153409 48.5149 0.00912857V23.6122Z"
                fill="#486D9E" />
            <path id="Fill 11" fill-rule="evenodd" clip-rule="evenodd"
                d="M26.1935 0.0593181H32.6151C32.6343 0.219071 32.6733 0.388295 32.6733 0.557519C32.6733 6.67863 32.67 12.8004 32.6647 18.9215C32.6634 20.3624 32.0835 21.5596 31.0585 22.6116C30.1523 23.541 29.0639 24.2104 27.7879 24.3505C26.6988 24.4699 25.6084 24.7761 24.4466 24.4737C23.7208 24.2849 22.9243 24.295 22.174 24.0664C20.8735 23.6692 19.793 22.9734 18.9833 21.9479C18.4424 21.2622 18.0831 20.4748 18.0065 19.5782C17.7278 16.3522 17.8519 13.1211 17.8354 9.89199C17.8183 6.65022 17.8315 3.40718 17.8315 0.167293C18.5355 -0.00635089 21.5228 -0.0530769 24.4281 0.0662639C24.4426 0.317574 24.4697 0.577093 24.4697 0.836612C24.4724 6.65463 24.4717 12.4733 24.4724 18.2919C24.4724 18.7466 24.5001 19.2012 24.4816 19.6546C24.4684 20.017 24.6923 20.2342 24.969 20.3706C25.2709 20.519 25.5852 20.3833 25.8474 20.2083C25.9313 20.1528 25.9696 20.0189 26.0026 19.9135C26.1724 19.3635 26.1981 18.8002 26.1981 18.2288C26.1915 12.5017 26.1942 6.77398 26.1935 1.04625V0.0593181Z"
                fill="#486D9E" />
            <path id="Fill 13" fill-rule="evenodd" clip-rule="evenodd"
                d="M86.43 4.05161C86.43 5.71618 86.4294 7.20347 86.4306 8.69139C86.4306 8.80895 86.4029 8.95202 86.4595 9.03848C86.5318 9.14983 86.7368 9.31218 86.7789 9.28605C87.1083 9.08078 87.5635 9.25184 87.8445 8.91221C88.0991 8.60368 88.2412 8.27524 88.2331 7.86657C88.2167 7.06289 88.2111 6.25735 88.2368 5.45368C88.2557 4.86648 87.9778 4.49512 87.4604 4.29482C87.1693 4.18286 86.8474 4.14678 86.43 4.05161ZM80.277 0.000276461C80.7561 0.000276461 81.1735 -0.000345576 81.591 0.000276461C83.792 0.00338665 85.9924 0.000276461 88.1934 0.0120952C89.1126 0.0170715 90.0374 0.110377 90.9031 0.392782C92.1686 0.806437 93.0224 1.67605 93.5253 2.9307C93.8604 3.76796 93.9151 4.63446 94.0113 5.49598C94.0899 6.20386 94.0578 6.92791 94.0163 7.64139C93.9849 8.19251 93.8862 8.74302 93.7756 9.28543C93.5429 10.4138 92.7439 10.9289 91.6688 11.131C91.5041 11.1615 91.3469 11.2305 91.0615 11.3226C91.5877 11.6094 92.0737 11.6579 92.4717 11.9428C93.2305 12.4858 93.7007 13.1334 93.8919 14.0683C94.0377 14.7799 94.0226 15.4791 94.0302 16.182C94.0534 18.5084 94.0396 20.8354 94.0396 23.1625C94.0396 23.3049 94.0245 23.448 94.0145 23.619H88.2349V22.7214C88.2356 20.2153 88.2368 17.7097 88.2343 15.2041C88.2337 14.7643 88.2224 14.3326 88.0759 13.8985C87.898 13.3691 87.7194 13.1489 87.202 13.0861C87.0826 13.0724 86.9606 13.0736 86.8399 13.0774C86.7248 13.0811 86.6098 13.0967 86.4369 13.1122V23.611C84.3698 23.611 82.3618 23.611 80.355 23.6116C80.1978 22.7513 80.1356 4.74518 80.277 0.000276461Z"
                fill="#486D9E" />
            <path id="Fill 15" fill-rule="evenodd" clip-rule="evenodd"
                d="M68.3168 23.619V0.144283C68.932 -0.010524 77.2934 -0.0602613 78.8125 0.0926809C78.8125 1.50771 78.8189 2.93082 78.808 4.35455C78.8048 4.74125 78.6729 4.84757 78.2293 4.85254C77.3703 4.86311 76.5099 4.85565 75.6502 4.85503C75.4665 4.85503 75.2815 4.84695 75.0978 4.85689C74.7265 4.87865 74.5914 4.98248 74.5869 5.33126C74.5735 6.43419 74.5735 7.53773 74.5863 8.64066C74.5914 9.05223 74.7111 9.16166 75.1343 9.16725C75.9632 9.1772 76.7922 9.17036 77.6212 9.17036C77.8055 9.17036 77.9899 9.16228 78.1736 9.17223C78.4649 9.18653 78.6153 9.34506 78.616 9.6267C78.6179 10.8496 78.6243 12.0725 78.6121 13.2948C78.6083 13.6915 78.4847 13.7966 78.0456 13.8015C77.1251 13.8115 76.2033 13.804 75.2828 13.804H74.619V18.8412C76.1092 18.8511 77.6001 18.8405 79.082 18.8468C79.2196 19.5462 79.2522 22.3054 79.1409 23.619H68.3168Z"
                fill="#486D9E" />
        </g>
        <g id="Group 2">
            <path id="Fill 1" fill-rule="evenodd" clip-rule="evenodd"
                d="M14.1377 37.2C13.2583 42.1644 12.6387 47.1526 11.9249 52.1497C10.7085 52.1497 9.61326 52.1581 8.51863 52.1459C8.03184 52.1401 7.79957 51.8952 7.74722 51.4228C7.56729 49.8032 7.35923 48.1906 7.01638 46.5928C6.86459 45.8838 6.88356 45.1408 6.78673 44.4191C6.66176 43.4929 6.49884 42.5712 6.35097 41.6489C6.3176 41.4413 6.25086 41.235 6.24628 41.0274C6.22862 40.2375 6.06177 39.474 5.87857 38.7091C5.80856 38.418 5.83997 38.1024 5.70976 37.7945C5.69537 37.995 5.66723 38.1962 5.66658 38.3974C5.66265 42.6522 5.65873 46.9077 5.66331 51.1625C5.66396 51.9421 5.7909 52.1832 4.69692 52.1568C3.41124 52.1266 2.1236 52.1536 0.83661 52.1491C0.0285618 52.1459 0.00108158 52.1195 0.00108158 51.311C-0.000881289 44.4351 0.000427292 37.5599 0.000427292 30.6834V27.5566H0.77707C3.00558 27.5566 5.23475 27.5547 7.46326 27.5579C8.22093 27.5585 8.41002 27.7603 8.49377 28.5213C8.61874 29.6615 8.75352 30.7991 9.02047 31.9213C9.14479 32.4471 9.09572 32.9972 9.21087 33.5442C9.43464 34.6079 9.49352 35.7037 9.63747 36.7848C9.69308 37.2 9.79515 37.6101 9.87432 38.015C10.1341 37.63 10.1661 37.1884 10.2041 36.7289C10.2669 35.9788 10.4154 35.2358 10.5234 34.489C10.6006 33.9504 10.6843 33.4124 10.7406 32.8719C10.823 32.0859 10.8636 31.2953 10.9572 30.5118C11.0566 29.6737 11.2012 28.8408 11.3177 28.0046C11.3583 27.7179 11.5074 27.5675 11.8019 27.5566C11.8647 27.5547 11.9275 27.5566 11.9903 27.5566C14.3758 27.5566 16.7614 27.5527 19.1469 27.5598C19.7018 27.5611 19.7796 27.6543 19.7973 28.2051C19.8025 28.3594 19.7979 28.5136 19.7979 28.6679C19.7979 36.1292 19.796 43.5912 19.7999 51.0532C19.7999 52.1009 19.9026 52.1722 18.6627 52.1542C17.4386 52.1356 16.2144 52.1536 14.9902 52.1491C14.154 52.1459 14.1396 52.1337 14.139 51.3283C14.1364 46.9193 14.1377 42.5108 14.1377 38.1011V37.2Z"
                fill="#2D496F" />
            <path id="Fill 7" fill-rule="evenodd" clip-rule="evenodd"
                d="M80.528 41.8731V42.9689C80.5286 45.6822 80.5286 48.3943 80.5286 51.1076C80.5286 51.2927 80.5394 51.4778 80.5267 51.6623C80.5027 52.0125 80.3831 52.1353 80.0169 52.1468C79.5628 52.1623 79.1068 52.1507 78.652 52.1507C77.7115 52.1507 76.771 52.1584 75.8299 52.1475C75.3561 52.1423 75.2708 52.0382 75.2511 51.5447C75.2448 51.3911 75.2499 51.2362 75.2499 51.0826V28.6084C75.2499 28.4542 75.2442 28.2999 75.2505 28.1463C75.2714 27.6752 75.3682 27.5653 75.8501 27.5621C77.215 27.5531 78.5806 27.5538 79.9455 27.5615C80.3642 27.5641 80.5925 27.7749 80.7114 28.1785C81.0163 29.2125 81.3173 30.2478 81.6399 31.2761C82.1946 33.0454 82.7436 34.8172 83.3495 36.5692C83.457 36.8802 83.2818 37.35 83.8226 37.5293V36.6084V28.5621C83.8226 28.377 83.8144 28.1919 83.8245 28.0075C83.8403 27.7183 83.9965 27.5602 84.2843 27.5602C85.7409 27.5583 87.1976 27.5557 88.6542 27.5628C88.9344 27.5641 89.0963 27.7286 89.1026 28.0236C89.1064 28.2087 89.1032 28.3937 89.1032 28.5788C89.1032 36.1013 89.1013 43.6231 89.1051 51.1456C89.1058 51.9836 89.2234 52.1828 88.0944 52.1565C86.9123 52.1295 85.7283 52.152 84.5449 52.1501C83.6841 52.1481 83.6601 52.1533 83.4159 51.3159C82.8049 49.2201 82.2256 47.1135 81.6152 45.0171C81.3059 43.956 80.9593 42.9059 80.6292 41.8519C80.5957 41.859 80.5621 41.866 80.528 41.8731Z"
                fill="#2D496F" />
            <path id="Fill 17" fill-rule="evenodd" clip-rule="evenodd"
                d="M41.5806 32.5404H37.1344C37.1181 32.8066 37.0921 33.0425 37.0908 33.2778C37.0869 34.388 37.0816 35.4982 37.0927 36.6071C37.0973 37.0487 37.1995 37.1503 37.643 37.1554C38.7343 37.1663 39.8264 37.1593 40.9132 37.1593C41.0636 37.8323 41.089 40.6724 40.9503 41.8045H37.0895V42.77V51.0929C37.0895 51.3089 37.0947 51.5249 37.0862 51.7402C37.0751 51.9967 36.9143 52.1208 36.6727 52.1523C36.5802 52.1645 36.4858 52.1555 36.3914 52.1555C34.7368 52.1562 33.0815 52.1607 31.4262 52.1536C30.76 52.151 30.6969 52.0848 30.6969 51.4028C30.6942 43.7259 30.6949 36.0504 30.6949 28.3748C30.6949 28.2508 30.6897 28.1273 30.6969 28.0039C30.7144 27.7095 30.8876 27.57 31.1761 27.5584C31.3324 27.5526 31.4887 27.5578 31.6443 27.5578H40.6384C40.7628 27.5578 40.8884 27.552 41.0128 27.5591C41.4628 27.5828 41.5676 27.6677 41.5761 28.0978C41.5911 28.837 41.5806 29.5776 41.5806 30.3175C41.58 31.0246 41.5806 31.7318 41.5806 32.5404Z"
                fill="#2D496F" />
            <path id="Fill 19" fill-rule="evenodd" clip-rule="evenodd"
                d="M53.0373 37.1375V41.7553C52.3975 41.83 51.7378 41.7797 51.0827 41.7888C50.4469 41.7965 49.8104 41.7907 49.1082 41.7907C49.0883 42.0341 49.0518 42.2684 49.0518 42.5021C49.0479 45.3422 49.0492 48.1829 49.0492 51.023C49.0492 51.2084 49.0565 51.3939 49.0479 51.5787C49.0273 52.048 48.9284 52.1363 48.414 52.1581C48.3822 52.1594 48.3503 52.1581 48.3185 52.1581C46.4727 52.1569 44.627 52.1569 42.7813 52.1523C42.7256 52.1523 42.6692 52.1144 42.5743 52.0796V27.5555H53.4541C53.4733 29.1819 53.4594 30.8032 53.4653 32.4849H49.0996C49.0804 32.776 49.0525 33.0116 49.0512 33.2466C49.0465 34.3586 49.0412 35.4699 49.0532 36.5812C49.0578 37.0184 49.1667 37.1278 49.6126 37.133C50.725 37.1459 51.8373 37.1375 53.0373 37.1375Z"
                fill="#2D496F" />
            <path id="Fill 21" fill-rule="evenodd" clip-rule="evenodd"
                d="M54.6096 27.5653C56.4618 27.5653 58.1698 27.5865 59.8771 27.5563C60.7492 27.5409 60.7492 27.7639 60.7461 28.429C60.7311 31.5729 60.7398 34.7167 60.7398 37.8612V46.0904C60.7398 46.2754 60.7298 46.4612 60.7405 46.645C60.7623 47.0158 60.8685 47.143 61.2209 47.1527C61.7893 47.1687 62.3591 47.1565 62.9282 47.1565H64.3544V48.9315C64.3544 49.7946 64.3606 50.6577 64.3513 51.5201C64.345 52.0555 64.2544 52.1467 63.7166 52.1531C62.8482 52.1634 61.9786 52.1563 61.1097 52.1563C59.2224 52.1563 57.3346 52.1589 55.4473 52.1551C54.6115 52.1531 54.459 51.9983 54.4584 51.141C54.4565 45.5923 54.4572 40.0443 54.4572 34.4956C54.4572 32.5542 54.4503 30.6121 54.464 28.6706C54.4665 28.3185 54.554 27.9669 54.6096 27.5653Z"
                fill="#2D496F" />
            <path id="Fill 23" fill-rule="evenodd" clip-rule="evenodd"
                d="M66.4163 27.557C68.2333 27.557 69.9943 27.5519 71.7553 27.5609C72.1637 27.5628 72.2505 27.6727 72.2728 28.1053C72.2818 28.2898 72.274 28.4756 72.274 28.66C72.274 36.1248 72.2716 43.5895 72.277 51.0543C72.2776 52.1798 72.3107 52.165 71.233 52.1573C69.6455 52.1444 68.0586 52.1534 66.4778 52.1534C66.3338 51.4374 66.2778 29.3305 66.4163 27.557Z"
                fill="#2D496F" />
            <path id="Fill 25" fill-rule="evenodd" clip-rule="evenodd"
                d="M27.7228 27.5572V52.1223C27.4827 52.1345 27.2591 52.1557 27.0354 52.1557C25.5477 52.1589 24.0605 52.1602 22.5728 52.1563C21.7955 52.1544 21.7845 52.1454 21.7845 51.3373C21.7821 46.9875 21.7839 42.637 21.7839 38.2871V28.6617C21.7839 28.4457 21.7796 28.2297 21.7845 28.0137C21.7918 27.7199 21.9413 27.5624 22.2172 27.5585C22.6846 27.5527 23.1513 27.5572 23.6175 27.5572H27.7228Z"
                fill="#2D496F" />
            <path id="Fill 32" fill-rule="evenodd" clip-rule="evenodd"
                d="M91.0994 54.127C91.0994 53.6698 91.1136 53.3962 91.0957 53.1252C91.0661 52.6764 91.1241 52.301 91.5112 51.9926C91.7448 51.8059 91.8723 51.4737 92.1115 51.1105C91.7047 51.0668 91.4273 51.0371 91.1296 51.0056V46.254H94.927C95.1637 47.7921 95.0503 50.1699 94.6478 51.3172C94.5313 51.6488 94.3495 51.9778 94.1264 52.2418C93.5846 52.8843 93.0169 53.5153 92.2157 53.8141C91.8958 53.9332 91.5574 54.0008 91.0994 54.127Z"
                fill="#2D496F" />
        </g>
        <g id="Group 3">
            <path id="Fill 27" fill-rule="evenodd" clip-rule="evenodd"
                d="M100 30.5088V32.7585C99.0638 33.1524 98.1231 33.5494 97.1811 33.9464C98.1172 34.1955 99.0396 34.0538 99.9856 34.1549V36.4127H92.3254C91.9611 35.7548 92.0876 35.0438 92.1642 34.3478C92.1878 34.133 92.3391 33.9339 92.6248 33.8521C93.0624 33.7279 93.483 33.5494 93.9088 33.389C94.3274 33.2323 94.7493 33.08 95.2177 32.6948C94.2815 32.6948 93.5013 32.7023 92.7217 32.6917C92.2232 32.6855 92.1243 32.5893 92.1046 32.123C92.0922 31.7953 92.0948 31.4651 92.104 31.1368C92.121 30.6087 92.2114 30.5125 92.7564 30.5113C95.1404 30.5057 97.5237 30.5088 100 30.5088Z"
                fill="#6D8CB6" />
            <path id="Fill 29" fill-rule="evenodd" clip-rule="evenodd"
                d="M95.3016 41.6537V44.1105C94.7435 44.1756 94.1635 44.1825 93.5981 44.1074C93.23 44.0579 92.8937 43.8149 92.7158 43.4504C92.5239 43.0584 92.2869 42.6576 92.2278 42.2367C92.084 41.204 92.0834 40.1563 92.4063 39.1492C92.6305 38.4497 93.2599 38.0051 93.9947 37.9975C95.3108 37.985 96.6262 37.9925 97.9411 37.9913C98.5485 37.9913 98.9665 38.2712 99.2462 38.8355C99.5393 39.4248 99.733 40.0179 99.7294 40.6949C99.7239 41.561 99.7269 42.4077 99.3108 43.2062C98.9939 43.8155 98.5626 44.1606 97.8741 44.1406C97.4092 44.1262 96.9431 44.138 96.3917 44.138C96.3764 43.3108 96.388 42.5098 96.3843 41.6712C97.0064 41.5854 97.6218 41.4996 98.2817 41.4075V40.7982C98.2335 40.7675 98.186 40.7111 98.1385 40.7105C96.7652 40.6999 95.3912 40.6936 94.0179 40.688C93.9307 40.6873 93.8174 40.6654 93.7607 40.7111C93.6352 40.8126 93.45 40.9541 93.453 41.0737C93.4561 41.1952 93.6419 41.3856 93.7754 41.4157C94.25 41.5209 94.7368 41.5704 95.3016 41.6537Z"
                fill="#6D8CB6" />
            <path id="Fill 34" fill-rule="evenodd" clip-rule="evenodd"
                d="M99.8373 29.523C97.5012 29.523 95.1605 29.5258 92.8205 29.521C92.1519 29.5189 92.0932 29.45 92.084 28.7358C92.0768 28.1806 92.0788 27.6262 92.0827 27.071C92.0847 26.7597 92.2453 26.5985 92.5398 26.5835C92.6338 26.5787 92.7271 26.5828 92.8212 26.5828C94.9431 26.5828 97.0651 26.5821 99.187 26.5828C99.3424 26.5828 99.5141 26.5466 99.6493 26.6033C99.7779 26.6579 99.9078 26.7925 99.9666 26.9256C100.062 27.1441 99.9326 29.1769 99.8373 29.523Z"
                fill="#6D8CB6" />
        </g>
        <g id="Group 4">
            <path id="Fill 36" fill-rule="evenodd" clip-rule="evenodd"
                d="M62.6833 58.3503C62.1987 59.0161 61.818 59.5378 61.4021 60.1095C60.9868 59.5378 60.6091 59.0189 60.1711 58.4155C60.0498 58.918 60.109 59.3298 60.1024 59.7327C60.0916 60.3573 60.1173 60.984 60.0827 61.6059C60.0749 61.7487 59.8903 61.9752 59.7767 61.9848C59.6662 61.9937 59.5144 61.7926 59.4331 61.6457C59.3805 61.5517 59.4206 61.3897 59.42 61.2572V57.9021V57.1669C59.8239 57.0303 60.1335 56.9967 60.4113 57.5053C60.6892 58.014 61.083 58.4388 61.4374 58.9152C61.8288 58.3558 62.1819 57.8609 62.525 57.3578C62.7323 57.053 62.9893 57.0187 63.3663 57.1573V58.8747C63.3663 59.7629 63.3657 60.6511 63.3657 61.5393C63.3663 61.807 63.2498 62.0054 63.0221 61.9999C62.7992 61.9958 62.6821 61.7988 62.6827 61.5297C62.6845 60.9044 62.6833 60.2798 62.6833 59.6538V58.3503Z"
                fill="#2D496F" />
            <path id="Fill 38" fill-rule="evenodd" clip-rule="evenodd"
                d="M53.0044 61.2464C53.935 61.2398 54.6923 60.4637 54.685 59.5248C54.6778 58.5984 53.8864 57.8191 52.9611 57.8264C52.0351 57.8336 51.3304 58.6149 51.2621 59.5479C51.1951 60.4637 51.9733 61.3928 53.0044 61.2464ZM50.516 59.5565C50.3092 58.156 51.6693 57.107 52.9624 57.08C54.3645 57.0503 55.4475 58.1343 55.4455 59.5354C55.4436 60.9549 54.4007 61.9974 52.9801 62C51.5051 62.002 50.5167 61.0215 50.516 59.5565Z"
                fill="#2D496F" />
            <path id="Fill 40" fill-rule="evenodd" clip-rule="evenodd"
                d="M86.4412 57.1157C87.0252 57.1443 87.1149 57.1845 87.1191 57.5454C87.1341 58.8186 87.1299 60.0924 87.1179 61.3656C87.1161 61.5141 87.0216 61.6632 86.9641 61.8089C86.8678 62.0547 86.6596 62.0274 86.5363 61.9267C86.306 61.7394 86.099 61.5025 85.9171 61.2533C85.3379 60.4601 84.7802 59.6472 84.2005 58.8546C84.0886 58.7014 83.9162 58.6061 83.6883 58.4134V61.9389C83.2294 61.9798 83.1671 61.6993 83.1683 61.3411C83.1719 60.296 83.1701 59.2509 83.1701 58.2065V57.1654C83.5614 56.9986 83.8044 57.0701 84.0353 57.4167C84.4793 58.0846 84.9651 58.7164 85.4372 59.3592C85.7047 59.7221 85.9793 60.0795 86.2976 60.5016C86.5286 60.1231 86.4191 59.7643 86.4358 59.4375C86.4568 59.0473 86.4412 58.6545 86.4412 58.2623V57.1157Z"
                fill="#2D496F" />
            <path id="Fill 42" fill-rule="evenodd" clip-rule="evenodd"
                d="M29.3486 59.1527C29.7808 59.3756 30.0782 59.1992 30.2597 58.7937C30.3349 58.6255 30.3137 58.3451 30.258 58.1509C30.199 57.9471 29.5875 57.7372 29.4739 57.8774C29.3826 57.9888 29.3664 58.2159 29.3536 58.3957C29.3347 58.6494 29.3486 58.9065 29.3486 59.1527ZM31.6832 61.8928C31.0962 62.1499 30.8512 61.8607 30.6306 61.3813C30.4385 60.9649 30.1834 60.5847 29.9194 60.2291C29.817 60.0916 29.6137 60.0663 29.3486 59.9377C29.3486 60.5498 29.3642 61.0312 29.3436 61.5106C29.3263 61.914 29.1409 62.0911 28.7533 61.9544C28.7416 61.7896 28.7171 61.6049 28.7165 61.4196C28.7132 60.1757 28.7098 58.9325 28.7176 57.6879C28.721 57.2352 28.8262 57.1108 29.1804 57.0869C29.5485 57.0636 29.9083 57.0875 30.2647 57.2605C31.0166 57.6264 31.2371 58.7116 30.693 59.4666C30.6234 59.563 30.5521 59.6567 30.4803 59.7538C30.8695 60.4472 31.2521 61.1269 31.6832 61.8928Z"
                fill="#2D496F" />
            <path id="Fill 44" fill-rule="evenodd" clip-rule="evenodd"
                d="M76.7119 59.871H77.7482C77.5596 59.3909 77.3977 58.9778 77.2346 58.564C77.0418 59.0215 76.6044 59.2981 76.7119 59.871ZM75.3645 61.9977C75.1095 61.5494 75.376 61.2019 75.4847 60.8843C75.8515 59.812 76.2896 58.7689 76.7028 57.7158C76.759 57.5733 76.8219 57.4314 76.898 57.3014C77.0738 57.001 77.3554 57.0003 77.5004 57.3306C77.7198 57.8326 77.8914 58.3597 78.092 58.8723C78.4478 59.7835 78.8031 60.6946 79.1759 61.5978C79.2346 61.739 79.2418 61.8226 79.1312 61.9008C79.063 61.9479 78.9506 62.0222 78.9077 61.9937C78.7276 61.875 78.4515 61.8988 78.4116 61.5553C78.3868 61.3471 78.3004 61.1343 78.1989 60.9526C78.0448 60.6774 77.8448 60.4532 77.5004 60.505C77.3578 60.5255 77.2116 60.5083 77.0672 60.5089C76.3204 60.5116 76.3053 60.5056 76.0575 61.2967C75.9415 61.6694 75.8201 61.9851 75.3645 61.9977Z"
                fill="#2D496F" />
            <path id="Fill 46" fill-rule="evenodd" clip-rule="evenodd"
                d="M9.32168 60.0116C9.36388 59.4125 9.23785 58.9598 8.72244 58.5576C8.6951 59.1167 8.33485 59.4864 8.53637 60.0393C8.68559 60.0393 8.82053 60.0421 8.95548 60.0379C9.06189 60.0351 9.1683 60.0234 9.32168 60.0116ZM8.06852 60.6523C7.95022 60.9909 7.85867 61.2936 7.74215 61.5839C7.5543 62.0483 7.54776 62.0448 6.93069 61.9481C7.46632 60.2867 8.05901 58.6689 8.63327 57.0794C9.21051 57.1174 9.30979 57.588 9.45365 57.9495C9.83827 58.917 10.1831 59.9066 10.538 60.89C10.6634 61.2369 10.771 61.5935 10.8911 61.9591C10.2657 62.0331 10.2544 62.0393 10.0654 61.5707C9.60702 60.4353 9.77169 60.6848 8.82053 60.6537C8.56669 60.6454 8.31285 60.6523 8.06852 60.6523Z"
                fill="#2D496F" />
            <path id="Fill 48" fill-rule="evenodd" clip-rule="evenodd"
                d="M46.3066 58.4701C45.9226 58.3533 45.617 58.2493 45.3052 58.1669C44.3999 57.927 43.4692 58.2524 42.9996 58.9653C42.3603 59.9346 43.1941 61.2288 44.482 61.2792C45.0308 61.3007 45.5477 61.2564 46.0258 60.9821C46.1298 60.9218 46.3278 60.9864 46.4834 60.9944C46.465 61.1562 46.5088 61.3592 46.4119 61.4705C46.2825 61.6206 46.0605 61.7442 45.8504 61.8026C44.8221 62.0874 43.8448 62.1299 42.9141 61.4828C42.5689 61.2435 42.3667 60.9772 42.245 60.6555C41.7139 59.2464 42.1163 58.1146 43.7868 57.5407C44.5774 57.2689 45.2797 57.4485 45.9975 57.6755C46.3448 57.7855 46.3356 57.8071 46.3066 58.4701Z"
                fill="#2D496F" />
            <path id="Fill 51" fill-rule="evenodd" clip-rule="evenodd"
                d="M15.6045 59.2334C16.7077 59.2761 16.7077 59.2761 17.0808 58.4234C16.7671 57.7407 16.2052 57.8281 15.6045 57.9038V59.2334ZM14.8416 57.0794C15.5918 57.1496 16.2792 56.9672 16.9614 57.2576C17.6975 57.5701 18.0626 58.5686 17.6194 59.2252C17.273 59.7379 16.7731 59.9815 16.1838 60.0414C16.0029 60.06 15.8187 60.0441 15.5731 60.0441V62H14.8416V57.0794Z"
                fill="#2D496F" />
            <path id="Fill 53" fill-rule="evenodd" clip-rule="evenodd"
                d="M69.0783 59.0873H69.6081C69.7009 59.0866 69.7937 59.0949 69.8853 59.0825C70.1779 59.0434 70.4531 58.7791 70.4647 58.4353C70.4731 58.202 70.3951 57.9906 70.1231 57.8478C69.7615 57.6577 69.4411 57.6701 69.0783 57.7524V59.0873ZM68.4008 57.0819C68.9371 57.0819 69.4295 57.075 69.9226 57.084C70.6755 57.097 71.2227 57.6028 71.2833 58.3289C71.3413 59.0235 70.7283 59.777 70.0225 59.8498C69.748 59.8786 69.4689 59.8546 69.1008 59.8546C69.0886 60.1923 69.0731 60.5045 69.0654 60.8168C69.0602 61.079 69.1034 61.3514 69.048 61.5999C69.0132 61.7571 68.852 61.9698 68.7212 61.9938C68.4846 62.0378 68.3396 61.8422 68.3196 61.5759C68.3151 61.5107 68.3177 61.4455 68.3177 61.3796C68.317 60.0674 68.3151 58.7551 68.3209 57.4429C68.3209 57.3262 68.3718 57.2089 68.4008 57.0819Z"
                fill="#2D496F" />
            <path id="Fill 55" fill-rule="evenodd" clip-rule="evenodd"
                d="M21.7723 61.9997V57.0868C22.6011 57.0868 23.3815 57.0861 24.1619 57.0868C24.2335 57.0868 24.3311 57.0643 24.3714 57.0977C24.4981 57.2029 24.7157 57.3539 24.6926 57.442C24.6516 57.5991 24.4787 57.8136 24.3274 57.8403C23.9815 57.9011 23.6156 57.8621 23.2578 57.8635C23.0797 57.8642 22.9015 57.8642 22.6786 57.8642C22.4789 58.3027 22.6034 58.7413 22.5929 59.2454C23.0074 59.2454 23.3651 59.2085 23.7073 59.2563C23.9972 59.298 24.5518 59.0009 24.5123 59.5685C24.4772 60.0713 23.9584 59.7974 23.6558 59.8384C23.3435 59.8807 23.0208 59.8479 22.6384 59.8479V61.3993H24.4198C24.633 61.3986 24.7433 61.4874 24.7426 61.6909C24.7418 61.8822 24.6613 61.9997 24.4362 61.9997C23.5791 62.0004 22.7204 61.9997 21.7723 61.9997Z"
                fill="#2D496F" />
            <path id="Fill 57" fill-rule="evenodd" clip-rule="evenodd"
                d="M1.61778 59.2523C1.91406 59.2523 2.13577 59.2359 2.35408 59.2564C2.60833 59.2802 2.77783 59.1631 2.9358 58.9887C3.32294 58.5617 3.19615 58.0176 2.64494 57.9039C2.31815 57.8365 1.96762 57.891 1.61778 57.891V59.2523ZM1.59201 60.1144V61.9681C1.2781 61.9953 0.996055 62.1016 0.994021 61.6787C0.987241 60.1846 0.991309 58.6904 0.991309 57.0996C1.51743 57.0996 1.99949 57.0479 2.46866 57.1098C3.70465 57.2712 4.12094 57.9359 3.90669 59.0228C3.82737 59.4273 3.4843 59.7412 3.04089 59.8386C2.58189 59.9408 2.11678 60.0157 1.59201 60.1144Z"
                fill="#2D496F" />
            <path id="Fill 59" fill-rule="evenodd" clip-rule="evenodd"
                d="M95.0495 57.125C94.6102 57.7213 94.306 58.2065 93.9319 58.6233C93.5148 59.0852 93.3712 59.6006 93.4078 60.2168C93.4352 60.6739 93.4391 61.1365 93.3973 61.5909C93.383 61.7404 93.2106 61.9679 93.0807 61.9933C92.8425 62.0392 92.678 61.8452 92.6734 61.5786C92.6629 60.9899 92.6623 60.3991 92.6721 59.8103C92.6773 59.5376 92.6133 59.3265 92.4384 59.103C91.9756 58.5109 91.5565 57.8824 91.0891 57.2244C91.5017 57.0106 91.8032 57.0202 92.0578 57.3409C92.2145 57.539 92.347 57.7569 92.5043 57.955C92.6577 58.149 92.8281 58.3285 93.0422 58.5725C93.3268 58.2024 93.6395 57.9166 93.802 57.5568C94.054 57.0003 94.4405 57.0729 95.0495 57.125Z"
                fill="#2D496F" />
        </g>
    </g>
</svg>