<svg width="100" height="63" viewBox="0 0 100 63" fill="none" xmlns="http://www.w3.org/2000/svg">
<g id="Page 1">
<g id="Group" opacity="0.7">
<path id="Fill 3" fill-rule="evenodd" clip-rule="evenodd" d="M7.58696 19.5672C8.04966 19.4654 8.43339 19.4418 8.74795 19.2897C8.96527 19.1848 9.19238 18.9179 9.23219 18.6944C9.34444 18.0612 9.4593 17.4293 9.45473 16.7738C9.43058 13.2615 9.44363 9.74863 9.44298 6.23514C9.44298 5.99801 9.48279 5.74908 9.42601 5.52313C9.30397 5.03645 9.31964 4.4399 8.69052 4.24002C8.35769 4.13387 7.98179 4.1469 7.58696 4.10159V19.5672ZM0.992997 0.00892803C1.23773 0.00892803 1.4185 0.00830727 1.59927 0.00892803C4.19666 0.0120318 6.79535 -0.027076 9.39142 0.0374829C10.7006 0.0697624 12.0319 0.203846 13.2425 0.748251C14.4674 1.29824 15.2767 2.23621 15.6291 3.47773C15.7798 4.00723 15.8275 4.57709 15.8294 5.12832C15.8438 9.8914 15.8477 14.6539 15.8288 19.4169C15.8255 20.2953 15.631 21.142 15.1083 21.9111C14.6456 22.5927 13.9656 23.0149 13.2157 23.2197C12.3712 23.45 11.4928 23.6257 10.5864 23.6189C7.70704 23.5971 4.82708 23.6114 1.94842 23.6114C1.79179 23.6114 1.63582 23.6114 1.47919 23.612C1.1803 23.612 1.0178 23.4661 0.995607 23.1868C0.984513 23.0391 0.99365 22.8901 0.99365 22.7405C0.992997 15.3584 0.992997 7.97574 0.992997 0.593682V0.00892803Z" fill="white"/>
<path id="Fill 5" fill-rule="evenodd" clip-rule="evenodd" d="M57.8856 19.4525C59.104 19.6712 59.6623 19.0058 59.7413 17.9864C59.7642 17.6895 59.757 17.3907 59.757 17.0925C59.7583 13.3665 59.7583 9.64117 59.757 5.9158C59.757 5.67726 59.7708 5.43685 59.7407 5.20141C59.6453 4.45596 59.2387 4.1963 58.6197 4.13418C58.3837 4.11057 58.1425 4.13045 57.8856 4.13045V19.4525ZM51.4851 23.5897V0.000677197C51.7374 0.000677197 51.9786 5.59916e-05 52.2198 0.000677197C54.5396 0.00378323 56.8588 -0.0098833 59.1779 0.018071C60.0741 0.0292527 60.9872 0.0460252 61.8579 0.218099C62.9651 0.437385 64.0515 0.774078 64.8941 1.58599C65.6445 2.30908 65.9928 3.1974 66.1419 4.16586C66.3354 5.42567 66.3393 6.6979 66.336 7.9695C66.3269 11.4843 66.3504 14.9991 66.3059 18.5139C66.2948 19.3829 66.1536 20.2681 65.9275 21.1117C65.6784 22.0373 64.9712 22.7051 64.0528 23.0642C63.1769 23.4065 62.2442 23.6183 61.2774 23.6183C58.1438 23.6177 55.0096 23.6195 51.8747 23.6189C51.7557 23.6189 51.6361 23.6021 51.4851 23.5897Z" fill="white"/>
<path id="Fill 9" fill-rule="evenodd" clip-rule="evenodd" d="M48.5148 23.6122H43.1105C42.1151 20.3054 41.1122 16.9744 40.1049 13.6296C40.0708 13.6663 40.0493 13.6837 40.0348 13.7054C40.0203 13.729 40.0019 13.757 40.0019 13.7831C40 17.0309 40 20.2787 40 23.4898C39.9425 23.547 39.9236 23.5725 39.8989 23.588C39.8755 23.6029 39.8458 23.6178 39.8187 23.6178C38.1535 23.619 36.4877 23.619 34.8257 23.619C34.6538 22.7922 34.5868 4.7864 34.7359 0.0687668C35.5941 -0.0542371 36.4656 0.0283868 37.332 0.0134772C38.18 -0.000811144 39.0294 0.010371 39.9703 0.010371C41.0446 3.2706 42.124 6.54511 43.2008 9.81341C43.2602 9.70097 43.3992 9.5643 43.3853 9.4444C43.1566 7.52231 43.3373 5.594 43.2912 3.66943C43.2627 2.48163 43.2861 1.29259 43.2861 0.0172046C45.0385 0.00229502 46.753 0.0153409 48.5148 0.00912857V23.6122Z" fill="white"/>
<path id="Fill 11" fill-rule="evenodd" clip-rule="evenodd" d="M26.1935 0.0593181H32.6151C32.6343 0.219071 32.6733 0.388295 32.6733 0.557519C32.6733 6.67863 32.67 12.8004 32.6647 18.9215C32.6634 20.3624 32.0835 21.5596 31.0584 22.6116C30.1523 23.541 29.0639 24.2104 27.7879 24.3505C26.6988 24.4699 25.6083 24.7761 24.4466 24.4737C23.7208 24.2849 22.9242 24.295 22.174 24.0664C20.8735 23.6692 19.793 22.9734 18.9833 21.9479C18.4424 21.2622 18.0831 20.4748 18.0065 19.5782C17.7278 16.3522 17.8519 13.1211 17.8354 9.89199C17.8182 6.65022 17.8315 3.40718 17.8315 0.167293C18.5355 -0.00635089 21.5228 -0.0530769 24.4281 0.0662639C24.4426 0.317574 24.4697 0.577093 24.4697 0.836612C24.4724 6.65463 24.4717 12.4733 24.4724 18.2919C24.4724 18.7466 24.5001 19.2012 24.4816 19.6546C24.4684 20.017 24.6923 20.2342 24.969 20.3706C25.2709 20.519 25.5852 20.3833 25.8474 20.2083C25.9313 20.1528 25.9696 20.0189 26.0026 19.9135C26.1724 19.3635 26.1981 18.8002 26.1981 18.2288C26.1915 12.5017 26.1942 6.77398 26.1935 1.04625V0.0593181Z" fill="white"/>
<path id="Fill 13" fill-rule="evenodd" clip-rule="evenodd" d="M86.43 4.05161C86.43 5.71618 86.4293 7.20347 86.4306 8.69139C86.4306 8.80895 86.4029 8.95202 86.4595 9.03848C86.5318 9.14983 86.7368 9.31218 86.7789 9.28605C87.1083 9.08078 87.5635 9.25184 87.8445 8.91221C88.0991 8.60368 88.2412 8.27524 88.233 7.86657C88.2167 7.06289 88.211 6.25735 88.2368 5.45368C88.2557 4.86648 87.9778 4.49512 87.4604 4.29482C87.1693 4.18286 86.8474 4.14678 86.43 4.05161ZM80.277 0.000276461C80.7561 0.000276461 81.1735 -0.000345576 81.591 0.000276461C83.792 0.00338665 85.9924 0.000276461 88.1934 0.0120952C89.1126 0.0170715 90.0374 0.110377 90.9031 0.392782C92.1686 0.806437 93.0224 1.67605 93.5253 2.9307C93.8604 3.76796 93.9151 4.63446 94.0113 5.49598C94.0899 6.20386 94.0578 6.92791 94.0163 7.64139C93.9849 8.19251 93.8862 8.74302 93.7755 9.28543C93.5429 10.4138 92.7439 10.9289 91.6688 11.131C91.5041 11.1615 91.3469 11.2305 91.0615 11.3226C91.5877 11.6094 92.0737 11.6579 92.4716 11.9428C93.2305 12.4858 93.7007 13.1334 93.8918 14.0683C94.0377 14.7799 94.0226 15.4791 94.0301 16.182C94.0534 18.5084 94.0396 20.8354 94.0396 23.1625C94.0396 23.3049 94.0245 23.448 94.0144 23.619H88.2349V22.7214C88.2355 20.2153 88.2368 17.7097 88.2343 15.2041C88.2337 14.7643 88.2223 14.3326 88.0759 13.8985C87.8979 13.3691 87.7194 13.1489 87.202 13.0861C87.0825 13.0724 86.9606 13.0736 86.8399 13.0774C86.7248 13.0811 86.6098 13.0967 86.4369 13.1122V23.611C84.3698 23.611 82.3617 23.611 80.355 23.6116C80.1978 22.7513 80.1356 4.74518 80.277 0.000276461Z" fill="white"/>
<path id="Fill 15" fill-rule="evenodd" clip-rule="evenodd" d="M68.3169 23.619V0.144283C68.9321 -0.010524 77.2935 -0.0602613 78.8125 0.0926809C78.8125 1.50771 78.8189 2.93082 78.8081 4.35455C78.8049 4.74125 78.673 4.84757 78.2294 4.85254C77.3703 4.86311 76.51 4.85565 75.6503 4.85503C75.4666 4.85503 75.2816 4.84695 75.0978 4.85689C74.7266 4.87865 74.5915 4.98248 74.587 5.33126C74.5736 6.43419 74.5736 7.53773 74.5864 8.64066C74.5915 9.05223 74.7112 9.16166 75.1343 9.16725C75.9633 9.1772 76.7923 9.17036 77.6212 9.17036C77.8056 9.17036 77.99 9.16228 78.1737 9.17223C78.4649 9.18653 78.6154 9.34506 78.616 9.6267C78.6179 10.8496 78.6243 12.0725 78.6122 13.2948C78.6083 13.6915 78.4848 13.7966 78.0457 13.8015C77.1251 13.8115 76.2033 13.804 75.2828 13.804H74.619V18.8412C76.1092 18.8511 77.6001 18.8405 79.082 18.8468C79.2197 19.5462 79.2523 22.3054 79.1409 23.619H68.3169Z" fill="white"/>
</g>
<g id="Group 2" opacity="0.9">
<path id="Fill 1" fill-rule="evenodd" clip-rule="evenodd" d="M14.1377 37.2C13.2583 42.1644 12.6387 47.1526 11.9249 52.1497C10.7085 52.1497 9.61326 52.1581 8.51863 52.1459C8.03184 52.1401 7.79957 51.8952 7.74722 51.4228C7.56729 49.8032 7.35923 48.1906 7.01638 46.5928C6.86459 45.8838 6.88356 45.1409 6.78673 44.4191C6.66176 43.4929 6.49884 42.5712 6.35097 41.6489C6.3176 41.4413 6.25086 41.235 6.24628 41.0274C6.22862 40.2375 6.06177 39.474 5.87857 38.7091C5.80856 38.418 5.83997 38.1024 5.70976 37.7945C5.69537 37.9951 5.66723 38.1962 5.66658 38.3974C5.66265 42.6522 5.65873 46.9077 5.66331 51.1625C5.66396 51.9421 5.7909 52.1832 4.69692 52.1568C3.41124 52.1266 2.1236 52.1536 0.83661 52.1491C0.0285618 52.1459 0.00108158 52.1195 0.00108158 51.311C-0.000881289 44.4351 0.000427292 37.5599 0.000427292 30.6835V27.5566H0.77707C3.00558 27.5566 5.23475 27.5547 7.46326 27.5579C8.22093 27.5585 8.41002 27.7604 8.49377 28.5213C8.61874 29.6615 8.75352 30.7991 9.02047 31.9213C9.14479 32.4471 9.09572 32.9973 9.21087 33.5442C9.43464 34.6079 9.49352 35.7038 9.63747 36.7848C9.69308 37.2 9.79515 37.6101 9.87432 38.015C10.1341 37.63 10.1661 37.1884 10.2041 36.7289C10.2669 35.9788 10.4154 35.2359 10.5234 34.489C10.6006 33.9504 10.6843 33.4125 10.7406 32.8719C10.823 32.0859 10.8636 31.2953 10.9572 30.5118C11.0566 29.6737 11.2012 28.8408 11.3177 28.0046C11.3583 27.7179 11.5074 27.5675 11.8019 27.5566C11.8647 27.5547 11.9275 27.5566 11.9903 27.5566C14.3758 27.5566 16.7614 27.5528 19.1469 27.5598C19.7018 27.5611 19.7796 27.6543 19.7973 28.2051C19.8025 28.3594 19.7979 28.5136 19.7979 28.6679C19.7979 36.1292 19.796 43.5913 19.7999 51.0533C19.7999 52.1009 19.9026 52.1722 18.6627 52.1542C17.4386 52.1356 16.2144 52.1536 14.9902 52.1491C14.154 52.1459 14.1396 52.1337 14.139 51.3283C14.1364 46.9193 14.1377 42.5108 14.1377 38.1011V37.2Z" fill="white"/>
<path id="Fill 7" fill-rule="evenodd" clip-rule="evenodd" d="M80.528 41.8731V42.9689C80.5286 45.6822 80.5286 48.3943 80.5286 51.1077C80.5286 51.2928 80.5394 51.4778 80.5267 51.6623C80.5027 52.0125 80.3832 52.1353 80.017 52.1469C79.5628 52.1623 79.1068 52.1507 78.6521 52.1507C77.7116 52.1507 76.771 52.1584 75.8299 52.1475C75.3562 52.1424 75.2708 52.0382 75.2512 51.5447C75.2449 51.3911 75.2499 51.2362 75.2499 51.0826V28.6084C75.2499 28.4542 75.2442 28.2999 75.2505 28.1463C75.2714 27.6753 75.3682 27.5654 75.8501 27.5621C77.215 27.5531 78.5806 27.5538 79.9455 27.5615C80.3642 27.5641 80.5925 27.7749 80.7114 28.1785C81.0163 29.2125 81.3174 30.2479 81.6399 31.2761C82.1946 33.0454 82.7436 34.8173 83.3495 36.5692C83.4571 36.8802 83.2819 37.35 83.8226 37.5293V36.6084V28.5621C83.8226 28.3771 83.8144 28.192 83.8245 28.0075C83.8403 27.7183 83.9966 27.5602 84.2844 27.5602C85.741 27.5583 87.1976 27.5557 88.6542 27.5628C88.9344 27.5641 89.0963 27.7286 89.1026 28.0236C89.1064 28.2087 89.1033 28.3938 89.1033 28.5788C89.1033 36.1013 89.1014 43.6231 89.1052 51.1456C89.1058 51.9836 89.2234 52.1828 88.0945 52.1565C86.9123 52.1295 85.7283 52.152 84.5449 52.1501C83.6841 52.1481 83.6601 52.1533 83.4159 51.3159C82.805 49.2201 82.2256 47.1135 81.6153 45.0171C81.306 43.956 80.9594 42.9059 80.6292 41.8519C80.5957 41.859 80.5622 41.8661 80.528 41.8731Z" fill="white"/>
<path id="Fill 17" fill-rule="evenodd" clip-rule="evenodd" d="M41.5807 32.5405H37.1344C37.1182 32.8066 37.0921 33.0425 37.0908 33.2778C37.0869 34.388 37.0817 35.4982 37.0928 36.6071C37.0973 37.0487 37.1996 37.1503 37.643 37.1554C38.7344 37.1664 39.8264 37.1593 40.9132 37.1593C41.0636 37.8323 41.089 40.6724 40.9503 41.8045H37.0895V42.77V51.0929C37.0895 51.3089 37.0947 51.5249 37.0863 51.7403C37.0752 51.9968 36.9143 52.1208 36.6728 52.1523C36.5803 52.1645 36.4859 52.1555 36.3914 52.1555C34.7368 52.1562 33.0815 52.1607 31.4262 52.1536C30.7601 52.151 30.6969 52.0848 30.6969 51.4028C30.6943 43.7259 30.6949 36.0504 30.6949 28.3748C30.6949 28.2508 30.6897 28.1273 30.6969 28.0039C30.7145 27.7095 30.8877 27.57 31.1762 27.5584C31.3324 27.5526 31.4887 27.5578 31.6444 27.5578H40.6384C40.7628 27.5578 40.8885 27.552 41.0129 27.5591C41.4628 27.5829 41.5677 27.6677 41.5761 28.0978C41.5911 28.837 41.5807 29.5776 41.5807 30.3175C41.58 31.0246 41.5807 31.7318 41.5807 32.5405Z" fill="white"/>
<path id="Fill 19" fill-rule="evenodd" clip-rule="evenodd" d="M53.0372 37.1375V41.7553C52.3974 41.83 51.7377 41.7798 51.0827 41.7888C50.4469 41.7965 49.8104 41.7907 49.1082 41.7907C49.0883 42.0341 49.0518 42.2684 49.0518 42.5022C49.0478 45.3422 49.0491 48.183 49.0491 51.023C49.0491 51.2085 49.0564 51.3939 49.0478 51.5787C49.0272 52.0481 48.9283 52.1363 48.414 52.1582C48.3821 52.1594 48.3503 52.1582 48.3184 52.1582C46.4727 52.1569 44.627 52.1569 42.7813 52.1524C42.7255 52.1524 42.6691 52.1144 42.5742 52.0796V27.5556H53.454C53.4733 29.182 53.4593 30.8032 53.4653 32.485H49.0996C49.0803 32.776 49.0525 33.0116 49.0511 33.2467C49.0465 34.3586 49.0412 35.4699 49.0531 36.5812C49.0578 37.0184 49.1666 37.1279 49.6126 37.133C50.7249 37.1459 51.8373 37.1375 53.0372 37.1375Z" fill="white"/>
<path id="Fill 21" fill-rule="evenodd" clip-rule="evenodd" d="M54.6096 27.5653C56.4618 27.5653 58.1698 27.5865 59.8771 27.5563C60.7492 27.5409 60.7492 27.7639 60.7461 28.429C60.7311 31.5729 60.7398 34.7167 60.7398 37.8612V46.0904C60.7398 46.2755 60.7298 46.4612 60.7405 46.645C60.7623 47.0158 60.8685 47.143 61.2209 47.1527C61.7893 47.1687 62.3591 47.1565 62.9282 47.1565H64.3544V48.9315C64.3544 49.7946 64.3606 50.6577 64.3513 51.5201C64.345 52.0555 64.2544 52.1467 63.7166 52.1531C62.8482 52.1634 61.9786 52.1564 61.1097 52.1564C59.2224 52.1564 57.3346 52.1589 55.4473 52.1551C54.6115 52.1531 54.459 51.9983 54.4584 51.141C54.4565 45.5923 54.4572 40.0443 54.4572 34.4957C54.4572 32.5542 54.4503 30.6121 54.464 28.6707C54.4665 28.3185 54.554 27.967 54.6096 27.5653Z" fill="white"/>
<path id="Fill 23" fill-rule="evenodd" clip-rule="evenodd" d="M66.4164 27.557C68.2334 27.557 69.9943 27.5519 71.7553 27.5609C72.1638 27.5628 72.2505 27.6727 72.2728 28.1053C72.2819 28.2898 72.274 28.4756 72.274 28.6601C72.274 36.1248 72.2716 43.5895 72.277 51.0543C72.2777 52.1798 72.3108 52.165 71.233 52.1573C69.6455 52.1445 68.0587 52.1535 66.4778 52.1535C66.3338 51.4374 66.2778 29.3305 66.4164 27.557Z" fill="white"/>
<path id="Fill 25" fill-rule="evenodd" clip-rule="evenodd" d="M27.7228 27.5572V52.1223C27.4828 52.1345 27.2591 52.1557 27.0355 52.1557C25.5477 52.1589 24.0606 52.1602 22.5728 52.1564C21.7955 52.1544 21.7846 52.1454 21.7846 51.3373C21.7821 46.9875 21.7839 42.637 21.7839 38.2872V28.6617C21.7839 28.4457 21.7797 28.2297 21.7846 28.0137C21.7919 27.7199 21.9414 27.5624 22.2173 27.5585C22.6846 27.5527 23.1514 27.5572 23.6175 27.5572H27.7228Z" fill="white"/>
<path id="Fill 32" fill-rule="evenodd" clip-rule="evenodd" d="M91.0994 54.127C91.0994 53.6698 91.1136 53.3962 91.0957 53.1252C91.0661 52.6764 91.1241 52.301 91.5112 51.9926C91.7448 51.8059 91.8723 51.4737 92.1115 51.1105C91.7047 51.0668 91.4273 51.0371 91.1296 51.0056V46.254H94.927C95.1637 47.7921 95.0503 50.1699 94.6478 51.3172C94.5313 51.6488 94.3495 51.9778 94.1264 52.2418C93.5846 52.8843 93.0169 53.5153 92.2157 53.8141C91.8958 53.9332 91.5574 54.0008 91.0994 54.127Z" fill="white"/>
</g>
<g id="Group 3" opacity="0.6">
<path id="Fill 27" fill-rule="evenodd" clip-rule="evenodd" d="M100 30.5088V32.7585C99.0639 33.1524 98.1231 33.5494 97.1811 33.9464C98.1172 34.1955 99.0396 34.0538 99.9856 34.1549V36.4127H92.3254C91.9612 35.7548 92.0876 35.0438 92.1642 34.3478C92.1878 34.133 92.3392 33.9339 92.6248 33.8521C93.0624 33.7279 93.483 33.5494 93.9088 33.389C94.3274 33.2323 94.7493 33.08 95.2177 32.6948C94.2816 32.6948 93.5013 32.7023 92.7217 32.6917C92.2232 32.6855 92.1243 32.5893 92.1046 32.123C92.0922 31.7953 92.0948 31.4651 92.104 31.1368C92.121 30.6087 92.2114 30.5125 92.7565 30.5113C95.1404 30.5057 97.5237 30.5088 100 30.5088Z" fill="white"/>
<path id="Fill 29" fill-rule="evenodd" clip-rule="evenodd" d="M95.3017 41.6537V44.1105C94.7435 44.1756 94.1635 44.1825 93.5981 44.1073C93.2301 44.0579 92.8937 43.8149 92.7158 43.4504C92.5239 43.0584 92.2869 42.6575 92.2278 42.2367C92.084 41.204 92.0834 40.1563 92.4063 39.1492C92.6305 38.4497 93.2599 38.005 93.9947 37.9975C95.3108 37.985 96.6263 37.9925 97.9411 37.9913C98.5486 37.9913 98.9665 38.2712 99.2462 38.8355C99.5393 39.4248 99.733 40.0179 99.7294 40.6948C99.7239 41.561 99.7269 42.4077 99.3108 43.2062C98.994 43.8155 98.5626 44.1606 97.8741 44.1405C97.4092 44.1261 96.9431 44.138 96.3917 44.138C96.3764 43.3107 96.388 42.5098 96.3844 41.6712C97.0065 41.5854 97.6218 41.4996 98.2817 41.4075V40.7982C98.2336 40.7675 98.186 40.7111 98.1385 40.7105C96.7652 40.6999 95.3912 40.6936 94.0179 40.688C93.9307 40.6873 93.8174 40.6654 93.7608 40.7111C93.6352 40.8126 93.45 40.9541 93.4531 41.0737C93.4561 41.1952 93.6419 41.3856 93.7754 41.4157C94.25 41.5209 94.7368 41.5704 95.3017 41.6537Z" fill="white"/>
<path id="Fill 34" fill-rule="evenodd" clip-rule="evenodd" d="M99.8373 29.523C97.5012 29.523 95.1605 29.5258 92.8205 29.521C92.1519 29.5189 92.0932 29.45 92.084 28.7357C92.0769 28.1806 92.0788 27.6262 92.0827 27.071C92.0847 26.7597 92.2453 26.5985 92.5398 26.5835C92.6338 26.5787 92.7272 26.5828 92.8212 26.5828C94.9431 26.5828 97.0651 26.5821 99.187 26.5828C99.3424 26.5828 99.5141 26.5466 99.6493 26.6033C99.7779 26.6579 99.9078 26.7924 99.9666 26.9256C100.062 27.1441 99.9326 29.1768 99.8373 29.523Z" fill="white"/>
</g>
<g id="Group 4" opacity="0.7">
<path id="Fill 36" fill-rule="evenodd" clip-rule="evenodd" d="M62.6834 58.3503C62.1987 59.0161 61.8181 59.5378 61.4022 60.1095C60.9869 59.5378 60.6092 59.0188 60.1712 58.4155C60.0499 58.9179 60.109 59.3298 60.1025 59.7327C60.0917 60.3573 60.1174 60.984 60.0827 61.6059C60.075 61.7487 59.8903 61.9752 59.7768 61.9848C59.6662 61.9937 59.5144 61.7926 59.4332 61.6457C59.3806 61.5517 59.4206 61.3897 59.42 61.2572V57.9021V57.1669C59.824 57.0303 60.1335 56.9967 60.4114 57.5053C60.6893 58.0139 61.0831 58.4388 61.4374 58.9152C61.8288 58.3558 62.182 57.8609 62.525 57.3577C62.7324 57.053 62.9893 57.0187 63.3664 57.1573V58.8747C63.3664 59.7629 63.3658 60.6511 63.3658 61.5393C63.3664 61.807 63.2499 62.0054 63.0222 61.9999C62.7993 61.9958 62.6822 61.7988 62.6828 61.5297C62.6846 60.9044 62.6834 60.2798 62.6834 59.6538V58.3503Z" fill="white"/>
<path id="Fill 38" fill-rule="evenodd" clip-rule="evenodd" d="M53.0045 61.2464C53.9351 61.2398 54.6923 60.4637 54.6851 59.5248C54.6779 58.5984 53.8865 57.8191 52.9612 57.8263C52.0351 57.8336 51.3305 58.6149 51.2622 59.5479C51.1952 60.4637 51.9734 61.3927 53.0045 61.2464ZM50.5161 59.5565C50.3092 58.156 51.6693 57.107 52.9625 57.08C54.3646 57.0503 55.4476 58.1342 55.4456 59.5354C55.4436 60.9549 54.4007 61.9974 52.9802 62C51.5052 62.002 50.5168 61.0215 50.5161 59.5565Z" fill="white"/>
<path id="Fill 40" fill-rule="evenodd" clip-rule="evenodd" d="M86.4412 57.1157C87.0252 57.1443 87.1149 57.1845 87.1191 57.5453C87.1341 58.8185 87.1299 60.0924 87.1179 61.3656C87.1161 61.5141 87.0216 61.6632 86.9642 61.8089C86.8678 62.0547 86.6596 62.0274 86.5364 61.9267C86.306 61.7394 86.099 61.5025 85.9171 61.2533C85.3379 60.4601 84.7803 59.6471 84.2005 58.8546C84.0886 58.7014 83.9163 58.6061 83.6883 58.4134V61.9389C83.2294 61.9798 83.1672 61.6992 83.1684 61.3411C83.1719 60.296 83.1701 59.2509 83.1701 58.2065V57.1654C83.5615 56.9986 83.8044 57.0701 84.0353 57.4167C84.4793 58.0846 84.9651 58.7164 85.4372 59.3591C85.7047 59.722 85.9793 60.0795 86.2976 60.5016C86.5286 60.1231 86.4191 59.7643 86.4358 59.4374C86.4568 59.0473 86.4412 58.6545 86.4412 58.2623V57.1157Z" fill="white"/>
<path id="Fill 42" fill-rule="evenodd" clip-rule="evenodd" d="M29.3486 59.1527C29.7808 59.3756 30.0782 59.1992 30.2597 58.7937C30.3349 58.6255 30.3138 58.3451 30.2581 58.1509C30.199 57.9471 29.5876 57.7372 29.4739 57.8773C29.3826 57.9888 29.3665 58.2158 29.3537 58.3957C29.3347 58.6494 29.3486 58.9065 29.3486 59.1527ZM31.6832 61.8928C31.0962 62.1499 30.8512 61.8607 30.6306 61.3813C30.4385 60.9648 30.1834 60.5846 29.9195 60.229C29.817 60.0916 29.6137 60.0663 29.3486 59.9377C29.3486 60.5498 29.3642 61.0312 29.3436 61.5105C29.3264 61.914 29.1409 62.0911 28.7533 61.9544C28.7416 61.7895 28.7171 61.6049 28.7166 61.4196C28.7132 60.1757 28.7099 58.9325 28.7177 57.6879C28.721 57.2352 28.8263 57.1108 29.1805 57.0868C29.5486 57.0636 29.9083 57.0875 30.2647 57.2605C31.0166 57.6264 31.2371 58.7116 30.693 59.4666C30.6234 59.563 30.5521 59.6567 30.4803 59.7538C30.8695 60.4472 31.2521 61.1269 31.6832 61.8928Z" fill="white"/>
<path id="Fill 44" fill-rule="evenodd" clip-rule="evenodd" d="M76.7119 59.871H77.7482C77.5597 59.3909 77.3977 58.9778 77.2346 58.564C77.0418 59.0215 76.6044 59.2981 76.7119 59.871ZM75.3645 61.9976C75.1095 61.5494 75.376 61.2019 75.4847 60.8843C75.8515 59.812 76.2896 58.7689 76.7029 57.7158C76.7591 57.5733 76.8219 57.4314 76.898 57.3014C77.0739 57.001 77.3554 57.0003 77.5004 57.3306C77.7198 57.8325 77.8914 58.3597 78.092 58.8723C78.4479 59.7835 78.8032 60.6946 79.176 61.5978C79.2346 61.739 79.2418 61.8226 79.1313 61.9008C79.063 61.9479 78.9506 62.0222 78.9077 61.9937C78.7276 61.875 78.4515 61.8988 78.4116 61.5553C78.3868 61.3471 78.3004 61.1342 78.1989 60.9526C78.0449 60.6774 77.8449 60.4532 77.5004 60.5049C77.3578 60.5255 77.2116 60.5083 77.0672 60.5089C76.3204 60.5116 76.3053 60.5056 76.0576 61.2967C75.9415 61.6694 75.8201 61.985 75.3645 61.9976Z" fill="white"/>
<path id="Fill 46" fill-rule="evenodd" clip-rule="evenodd" d="M9.32164 60.0116C9.36385 59.4125 9.23782 58.9598 8.72241 58.5576C8.69507 59.1167 8.33482 59.4864 8.53634 60.0393C8.68556 60.0393 8.8205 60.042 8.95545 60.0379C9.06186 60.0351 9.16827 60.0234 9.32164 60.0116ZM8.06849 60.6523C7.95019 60.9909 7.85864 61.2936 7.74212 61.5838C7.55427 62.0482 7.54773 62.0448 6.93066 61.948C7.46629 60.2867 8.05898 58.6689 8.63324 57.0794C9.21048 57.1174 9.30976 57.588 9.45362 57.9494C9.83824 58.917 10.183 59.9066 10.5379 60.89C10.6634 61.2369 10.771 61.5935 10.8911 61.9591C10.2657 62.033 10.2544 62.0393 10.0653 61.5707C9.60699 60.4353 9.77166 60.6847 8.8205 60.6536C8.56666 60.6454 8.31282 60.6523 8.06849 60.6523Z" fill="white"/>
<path id="Fill 48" fill-rule="evenodd" clip-rule="evenodd" d="M46.3066 58.4701C45.9226 58.3533 45.6171 58.2493 45.3052 58.1669C44.4 57.927 43.4693 58.2524 42.9997 58.9653C42.3604 59.9346 43.1942 61.2287 44.482 61.2792C45.0308 61.3007 45.5478 61.2564 46.0259 60.9821C46.1298 60.9218 46.3278 60.9864 46.4834 60.9944C46.465 61.1562 46.5089 61.3591 46.412 61.4705C46.2826 61.6206 46.0605 61.7442 45.8505 61.8026C44.8222 62.0874 43.8448 62.1298 42.9141 61.4828C42.569 61.2435 42.3667 60.9772 42.2451 60.6555C41.714 59.2463 42.1164 58.1146 43.7868 57.5407C44.5775 57.2689 45.2798 57.4485 45.9976 57.6754C46.3448 57.7855 46.3356 57.8071 46.3066 58.4701Z" fill="white"/>
<path id="Fill 51" fill-rule="evenodd" clip-rule="evenodd" d="M15.6044 59.2334C16.7077 59.2761 16.7077 59.2761 17.0808 58.4234C16.7671 57.7407 16.2051 57.8281 15.6044 57.9038V59.2334ZM14.8416 57.0794C15.5917 57.1496 16.2792 56.9672 16.9613 57.2576C17.6975 57.57 18.0626 58.5686 17.6194 59.2252C17.273 59.7379 16.7731 59.9815 16.1838 60.0414C16.0029 60.06 15.8187 60.0441 15.5731 60.0441V62H14.8416V57.0794Z" fill="white"/>
<path id="Fill 53" fill-rule="evenodd" clip-rule="evenodd" d="M69.0783 59.0873H69.6082C69.701 59.0866 69.7938 59.0948 69.8853 59.0825C70.1779 59.0434 70.4532 58.7791 70.4648 58.4353C70.4732 58.2019 70.3952 57.9906 70.1232 57.8478C69.7616 57.6577 69.4412 57.6701 69.0783 57.7524V59.0873ZM68.4009 57.0819C68.9372 57.0819 69.4296 57.075 69.9227 57.0839C70.6756 57.097 71.2228 57.6028 71.2834 58.3289C71.3414 59.0235 70.7284 59.777 70.0226 59.8498C69.748 59.8786 69.4689 59.8546 69.1009 59.8546C69.0886 60.1922 69.0732 60.5045 69.0654 60.8168C69.0603 61.079 69.1035 61.3514 69.048 61.5999C69.0132 61.757 68.8521 61.9698 68.7212 61.9938C68.4847 62.0377 68.3396 61.8421 68.3197 61.5759C68.3151 61.5107 68.3177 61.4455 68.3177 61.3796C68.3171 60.0673 68.3151 58.7551 68.3209 57.4429C68.3209 57.3262 68.3719 57.2088 68.4009 57.0819Z" fill="white"/>
<path id="Fill 55" fill-rule="evenodd" clip-rule="evenodd" d="M21.7723 61.9997V57.0868C22.6012 57.0868 23.3816 57.0861 24.162 57.0868C24.2335 57.0868 24.3312 57.0642 24.3714 57.0977C24.4982 57.2029 24.7158 57.3539 24.6927 57.442C24.6517 57.5991 24.4788 57.8136 24.3275 57.8403C23.9816 57.901 23.6156 57.8621 23.2579 57.8635C23.0797 57.8642 22.9016 57.8642 22.6787 57.8642C22.4789 58.3027 22.6034 58.7413 22.593 59.2454C23.0074 59.2454 23.3652 59.2085 23.7073 59.2563C23.9973 59.298 24.5518 59.0009 24.5123 59.5685C24.4773 60.0713 23.9585 59.7974 23.6559 59.8383C23.3436 59.8807 23.0208 59.8479 22.6385 59.8479V61.3992H24.4199C24.6331 61.3986 24.7434 61.4874 24.7426 61.6909C24.7419 61.8822 24.6614 61.9997 24.4363 61.9997C23.5791 62.0004 22.7204 61.9997 21.7723 61.9997Z" fill="white"/>
<path id="Fill 57" fill-rule="evenodd" clip-rule="evenodd" d="M1.61779 59.2523C1.91407 59.2523 2.13578 59.2359 2.35409 59.2563C2.60834 59.2802 2.77784 59.163 2.93581 58.9887C3.32295 58.5617 3.19617 58.0176 2.64495 57.9039C2.31816 57.8365 1.96764 57.8909 1.61779 57.8909V59.2523ZM1.59203 60.1144V61.9681C1.27811 61.9953 0.996069 62.1016 0.994035 61.6787C0.987255 60.1845 0.991323 58.6904 0.991323 57.0996C1.51745 57.0996 1.9995 57.0479 2.46868 57.1098C3.70466 57.2712 4.12095 57.9359 3.9067 59.0228C3.82738 59.4273 3.48431 59.7412 3.0409 59.8386C2.5819 59.9407 2.1168 60.0157 1.59203 60.1144Z" fill="white"/>
<path id="Fill 59" fill-rule="evenodd" clip-rule="evenodd" d="M95.0495 57.125C94.6102 57.7213 94.306 58.2065 93.932 58.6232C93.5148 59.0852 93.3712 59.6006 93.4078 60.2167C93.4352 60.6739 93.4391 61.1365 93.3973 61.5909C93.383 61.7403 93.2106 61.9679 93.0807 61.9932C92.8425 62.0392 92.678 61.8452 92.6734 61.5786C92.663 60.9899 92.6623 60.3991 92.6721 59.8103C92.6773 59.5375 92.6133 59.3264 92.4384 59.103C91.9756 58.5108 91.5565 57.8823 91.0891 57.2244C91.5017 57.0105 91.8032 57.0201 92.0578 57.3409C92.2145 57.539 92.347 57.7569 92.5043 57.955C92.6577 58.149 92.8281 58.3285 93.0422 58.5725C93.3268 58.2024 93.6395 57.9166 93.8021 57.5568C94.054 57.0003 94.4405 57.0729 95.0495 57.125Z" fill="white"/>
</g>
</g>
</svg>
